<?xml version="1.0" encoding="UTF-8"?>
<svg id="Layer_1" xmlns="http://www.w3.org/2000/svg" version="1.1" viewBox="0 0 540 540">
  <!-- Generator: Adobe Illustrator 30.1.0, SVG Export Plug-In . SVG Version: 2.1.1 Build 136)  -->
  <defs>
    <style>
      .st0 {
        fill: #d8d9db;
      }

      .st1 {
        fill: #e9cc5a;
      }

      .st2 {
        fill: #fff;
      }

      .st3 {
        fill: #73bf00;
      }

      .st4 {
        fill: #333;
      }

      .st5 {
        fill: #f3585d;
      }
    </style>
  </defs>
  <path class="st2" d="M162.5,85.12c-.81,1.63,2.52,36.52,2.52,36.52h33.78l-3.56-13.33-30.44-23.33-2.3.15Z"/>
  <rect class="st0" x="150" y="240.12" width="15" height="115" rx="6" ry="6" transform="translate(-140.12 455.13) rotate(-90)"/>
  <rect class="st0" x="87.5" y="2.63" width="15" height="150" rx="5" ry="5" transform="translate(17.38 172.63) rotate(-90)"/>
  <rect class="st0" x="20" y="70.13" width="15" height="155" rx="6" ry="6"/>
  <rect class="st0" x="200" y="118.69" width="15" height="186.43" rx="4.41" ry="4.41"/>
  <rect class="st0" x="151" y="70.33" width="15" height="61.79" rx="5.07" ry="5.07"/>
  <rect class="st0" x="177.28" y="94.41" width="11.43" height="64" rx="5.16" ry="5.16" transform="translate(56.59 309.41) rotate(-90)"/>
  <rect class="st0" x="179.73" y="63.01" width="14.07" height="74.24" rx="5.16" ry="5.16" transform="translate(-18.12 154.28) rotate(-43)"/>
  <rect class="st0" x="82.51" y="106.94" width="10" height="70" rx="5" ry="5" transform="translate(-54.43 229.45) rotate(-90)"/>
  <rect class="st0" x="107.51" y="116.94" width="10" height="120" rx="5" ry="5" transform="translate(-64.43 289.45) rotate(-90)"/>
  <rect class="st0" x="106.88" y="151.94" width="10" height="120" rx="5" ry="5" transform="translate(-100.06 323.82) rotate(-90)"/>
  <rect class="st0" x="131.13" y="211.94" width="10" height="70" rx="5" ry="5" transform="translate(-110.81 383.07) rotate(-90)"/>
  <path class="st5" d="M90.49,235l.56.56c2.17,2.17,2.51,5.37.75,7.13l-50.54,50.54c-1.75,1.75-4.96,1.41-7.13-.75l-.56-.56c-2.17-2.17-2.51-5.37-.75-7.13l50.54-50.54c1.75-1.75,4.96-1.41,7.13.75Z"/>
  <path class="st5" d="M91.06,291.92l-.56.56c-2.17,2.17-5.37,2.51-7.13.75l-50.54-50.54c-1.75-1.75-1.41-4.96.75-7.13l.56-.56c2.17-2.17,5.37-2.51,7.13-.75l50.54,50.54c1.75,1.75,1.41,4.96-.75,7.13Z"/>
  <path class="st2" d="M470.15,85.12c-.81,1.63,2.52,36.52,2.52,36.52h33.78l-3.56-13.33-30.44-23.33-2.3.15Z"/>
  <rect class="st1" x="457.65" y="240.12" width="15" height="115" rx="6" ry="6" transform="translate(167.52 762.77) rotate(-90)"/>
  <rect class="st1" x="395.15" y="2.63" width="15" height="150" rx="5" ry="5" transform="translate(325.02 480.27) rotate(-90)"/>
  <rect class="st1" x="327.65" y="70.13" width="15" height="155" rx="6" ry="6"/>
  <rect class="st1" x="507.65" y="118.69" width="15" height="186.43" rx="4.41" ry="4.41"/>
  <rect class="st1" x="458.65" y="70.33" width="15" height="61.79" rx="5.07" ry="5.07"/>
  <rect class="st1" x="484.93" y="94.41" width="11.43" height="64" rx="5.16" ry="5.16" transform="translate(364.24 617.06) rotate(-90)"/>
  <rect class="st1" x="487.38" y="63.01" width="14.07" height="74.24" rx="5.16" ry="5.16" transform="translate(64.54 364.11) rotate(-43)"/>
  <rect class="st1" x="390.16" y="106.94" width="10" height="70" rx="5" ry="5" transform="translate(253.22 537.1) rotate(-90)"/>
  <rect class="st1" x="415.16" y="116.94" width="10" height="120" rx="5" ry="5" transform="translate(243.22 597.1) rotate(-90)"/>
  <rect class="st1" x="414.53" y="151.94" width="10" height="120" rx="5" ry="5" transform="translate(207.59 631.47) rotate(-90)"/>
  <rect class="st1" x="438.78" y="211.94" width="10" height="70" rx="5" ry="5" transform="translate(196.84 690.72) rotate(-90)"/>
  <path class="st3" d="M401.14,235.82l.56.56c2.17,2.17,2.51,5.37.75,7.13l-50.54,50.54c-1.75,1.75-4.96,1.41-7.13-.75l-.56-.56c-2.17-2.17-2.51-5.37-.75-7.13l50.54-50.54c1.75-1.75,4.96-1.41,7.13.75Z"/>
  <path class="st3" d="M352.59,292.46l-.58.54c-2.24,2.09-4.87,2.95-5.84,1.91l-28.02-30.05c-.97-1.04.07-3.61,2.31-5.7l.58-.54c2.24-2.09,4.87-2.95,5.84-1.91l28.02,30.05c.97,1.04-.07,3.61-2.31,5.7Z"/>
  <rect class="st4" x="258.7" y="152.89" width="15" height="70" rx="6" ry="6" transform="translate(78.31 454.1) rotate(-90)"/>
  <path class="st4" d="M301.57,183.19l.56.56c2.17,2.17,2.86,5.02,1.54,6.34l-38.08,38.08c-1.32,1.32-4.17.63-6.34-1.54l-.56-.56c-2.17-2.17-2.86-5.02-1.54-6.34l38.08-38.08c1.32-1.32,4.17-.63,6.34,1.54Z"/>
  <path class="st4" d="M302.13,191.54l-.56.56c-2.17,2.17-5.02,2.86-6.34,1.54l-38.12-38.12c-1.32-1.32-.63-4.18,1.54-6.34l.56-.56c2.17-2.17,5.02-2.86,6.34-1.54l38.12,38.12c1.32,1.32.63,4.18-1.54,6.34Z"/>
  <g>
    <path class="st4" d="M33.17,445.63v-79.22h20.43c3.09,0,6.29.26,9.62.77,3.33.52,6.41,1.45,9.26,2.79,2.85,1.35,5.46,3.07,7.84,5.17,2.38,2.1,4.41,4.61,6.12,7.54,1.7,2.93,3.05,6.24,4.04,9.92.99,3.68,1.48,7.78,1.48,12.29,0,5.54-.63,10.51-1.9,14.91-1.27,4.39-3.03,8.22-5.29,11.46-2.26,3.25-4.93,5.94-8.02,8.08-3.09,2.14-6.41,3.72-9.98,4.75-1.82.55-3.98.95-6.47,1.19-2.49.24-4.73.36-6.71.36h-20.43ZM42.68,437.44h9.74c1.74,0,3.72-.1,5.94-.3,2.22-.2,4.23-.65,6.06-1.37,2.38-1.03,4.61-2.38,6.71-4.04,2.1-1.66,3.96-3.7,5.58-6.12,1.62-2.41,2.89-5.29,3.8-8.61.91-3.33,1.37-7.21,1.37-11.64,0-6.89-1.05-12.43-3.15-16.63-2.1-4.2-4.97-7.48-8.61-9.86-2.3-1.5-5.01-2.59-8.14-3.27-3.13-.67-6.16-1.01-9.09-1.01h-10.21v62.83Z"/>
    <path class="st4" d="M109.19,445.63v-56.66h8.31l.71,4.99c1.5-1.58,3.44-3.05,5.82-4.4,2.38-1.34,4.79-2.02,7.25-2.02,1.74,0,3.34.12,4.81.36,1.46.24,2.59.47,3.38.71l-1.66,8.43c-1.98-.87-4.47-1.31-7.48-1.31-2.3,0-4.49.63-6.59,1.9-2.1,1.27-3.9,2.57-5.4,3.92v44.07h-9.15Z"/>
    <path class="st4" d="M181.52,445.63l-.48-4.87c-1.98,1.98-4.26,3.5-6.83,4.57-2.57,1.07-5.4,1.6-8.49,1.6-2.46,0-4.85-.38-7.19-1.13-2.34-.75-4.39-1.86-6.18-3.33-1.78-1.46-3.23-3.31-4.33-5.52-1.11-2.22-1.66-4.79-1.66-7.72,0-4.04,1.09-7.36,3.27-9.98,2.18-2.61,4.93-4.69,8.25-6.24,3.33-1.54,7.01-2.63,11.05-3.27,4.04-.63,7.96-.95,11.76-.95v-.71c0-4.75-1.01-8.15-3.03-10.21-2.02-2.06-4.93-3.09-8.73-3.09-2.61,0-5.01.58-7.19,1.72-2.18,1.15-4.02,2.67-5.52,4.57l-6.41-4.51c2.3-3.09,5.01-5.36,8.14-6.83,3.13-1.46,7.07-2.2,11.82-2.2,6.33,0,11.26,1.62,14.79,4.87,3.52,3.25,5.29,8.67,5.29,16.27v36.94h-8.31ZM180.69,416.06c-2.61.08-5.39.28-8.31.59-2.93.32-5.64.93-8.14,1.84-2.49.91-4.55,2.24-6.18,3.98-1.62,1.74-2.43,4.04-2.43,6.89,0,1.82.36,3.37,1.07,4.63.71,1.27,1.6,2.32,2.67,3.15s2.26,1.42,3.56,1.78c1.31.36,2.59.54,3.86.54,2.77,0,5.32-.57,7.66-1.72,2.33-1.15,4.41-2.51,6.24-4.1v-17.58Z"/>
    <path class="st4" d="M212.16,445.63v-49.17h-8.31v-7.48h8.43v-4.16c0-3.64.42-6.73,1.25-9.26.83-2.53,2-4.59,3.5-6.18,1.5-1.58,3.28-2.73,5.34-3.44,2.06-.71,4.35-1.07,6.89-1.07,3.01,0,5.56.3,7.66.89,2.1.59,3.94,1.33,5.52,2.2l-2.73,7.01c-1.35-.63-2.83-1.21-4.45-1.72-1.62-.51-3.46-.77-5.52-.77-1.35,0-2.54.16-3.56.47-1.03.32-1.9.93-2.61,1.84-.71.91-1.27,2.18-1.66,3.8-.4,1.62-.59,3.74-.59,6.35v4.04h26.96v-15.44h9.15v15.44h14.85v7.48h-14.96v36.23c0,2.77.53,4.61,1.6,5.52,1.07.91,2.44,1.37,4.1,1.37,1.5,0,2.93-.32,4.28-.95,1.35-.63,2.57-1.38,3.68-2.26l3.56,6.18c-1.82,1.35-3.62,2.42-5.4,3.21-1.78.79-4.3,1.19-7.54,1.19-4.28,0-7.56-1.09-9.86-3.27-2.3-2.18-3.44-5.52-3.44-10.04v-37.18h-26.84v49.17h-9.26Z"/>
    <path class="st4" d="M290.08,428.65c2.3,3.33,5.3,5.82,9.03,7.48,3.72,1.66,7.52,2.49,11.4,2.49,2.06,0,4.02-.26,5.88-.77,1.86-.51,3.48-1.31,4.87-2.38,1.38-1.07,2.49-2.47,3.33-4.22.83-1.74,1.25-3.8,1.25-6.18,0-2.22-.52-4.18-1.54-5.88-1.03-1.7-2.42-3.23-4.16-4.57-1.74-1.35-3.72-2.55-5.94-3.62-2.22-1.07-4.51-2.12-6.89-3.15-2.69-1.19-5.35-2.39-7.96-3.62-2.61-1.23-4.97-2.71-7.07-4.45-2.1-1.74-3.8-3.76-5.11-6.06-1.31-2.29-1.96-5.11-1.96-8.43s.69-6.39,2.08-8.97c1.38-2.57,3.25-4.71,5.58-6.41,2.34-1.7,4.99-2.97,7.96-3.8,2.97-.83,6.08-1.25,9.32-1.25,4.99,0,9.78.99,14.37,2.97,4.59,1.98,8.31,5.11,11.16,9.38l-7.24,5.7c-2.06-2.85-4.69-5.17-7.9-6.95-3.21-1.78-6.71-2.67-10.51-2.67-4.67,0-8.3,1.05-10.87,3.15-2.57,2.1-3.86,4.89-3.86,8.37,0,1.98.46,3.66,1.37,5.05.91,1.39,2.18,2.65,3.8,3.8,1.62,1.15,3.58,2.24,5.88,3.27,2.29,1.03,4.87,2.18,7.72,3.44,2.69,1.19,5.35,2.46,7.96,3.8,2.61,1.35,4.95,2.93,7.01,4.75,2.06,1.82,3.72,3.96,4.99,6.41,1.27,2.46,1.9,5.39,1.9,8.79,0,4.04-.7,7.52-2.08,10.45-1.39,2.93-3.27,5.34-5.64,7.25s-5.13,3.29-8.26,4.16-6.47,1.31-10.04,1.31c-2.69,0-5.37-.3-8.02-.89-2.65-.59-5.19-1.44-7.6-2.55-2.42-1.11-4.63-2.47-6.65-4.1-2.02-1.62-3.7-3.46-5.05-5.52l7.48-5.58Z"/>
    <path class="st4" d="M352.31,445.63v-79.22h9.15v27.08c2.3-1.66,4.91-3.07,7.84-4.22,2.93-1.15,6.22-1.72,9.86-1.72,7.68,0,13.12,1.94,16.33,5.82,3.21,3.88,4.81,9.54,4.81,16.99v35.28h-9.26v-35.39c0-5.23-1.07-9.09-3.21-11.58-2.14-2.49-5.58-3.74-10.33-3.74-3.01,0-5.92.69-8.73,2.08-2.81,1.39-5.25,2.83-7.3,4.33v44.3h-9.15Z"/>
    <path class="st4" d="M424.76,379.95c-1.66,0-3.09-.65-4.28-1.96s-1.78-2.91-1.78-4.81.59-3.4,1.78-4.75c1.19-1.34,2.61-2.02,4.28-2.02s3.09.67,4.28,2.02c1.19,1.35,1.78,2.93,1.78,4.75s-.59,3.5-1.78,4.81-2.61,1.96-4.28,1.96ZM420.13,445.63v-56.66h9.26v56.66h-9.26Z"/>
    <path class="st4" d="M452.08,445.63v-49.17h-8.31v-7.48h8.43v-4.16c0-3.64.42-6.73,1.25-9.26.83-2.53,2-4.59,3.5-6.18,1.5-1.58,3.28-2.73,5.34-3.44,2.06-.71,4.35-1.07,6.89-1.07,3.01,0,5.56.3,7.66.89,2.1.59,3.94,1.33,5.52,2.2l-2.73,7.01c-1.35-.63-2.83-1.21-4.45-1.72-1.62-.51-3.46-.77-5.52-.77-1.35,0-2.54.16-3.56.47-1.03.32-1.9.93-2.61,1.84-.71.91-1.27,2.18-1.66,3.8-.4,1.62-.59,3.74-.59,6.35v4.04h26.96v-15.44h9.15v15.44h14.85v7.48h-14.97v36.23c0,2.77.54,4.61,1.6,5.52,1.07.91,2.44,1.37,4.1,1.37,1.5,0,2.93-.32,4.28-.95,1.35-.63,2.57-1.38,3.68-2.26l3.56,6.18c-1.82,1.35-3.62,2.42-5.4,3.21-1.78.79-4.3,1.19-7.54,1.19-4.28,0-7.56-1.09-9.86-3.27-2.3-2.18-3.44-5.52-3.44-10.04v-37.18h-26.84v49.17h-9.26Z"/>
  </g>
</svg>