<?xml version="1.0" encoding="UTF-8"?>
<svg xmlns="http://www.w3.org/2000/svg" viewBox="0 0 120 120" width="120" height="120" preserveAspectRatio="xMidYMid meet" data-logo="firstperson" role="img" aria-label="FirstPerson logo">
  <title>FirstPerson</title>
  <g fill="#2E2E2E" transform="scale(0.3175)">
    <path d="M75.39 363.16c-.93-.87-1.72-3.94-1.71-5.33l.05-146.24c3.5-30.27 28.22-53.58 58.26-56.78 41.9-.86 75.9-1.4 112.09-.04 30.64 2.2 57.5 30.05 59.75 60.49 2.44 33-3.56 65.67-36.41 80.92-24.94 11.58-76.37 5.11-104.93 5.66-4.8.09-7.54 2.46-11.2 5.13-22.61 16.52-43.77 38.29-66.51 54.48-2.42 1.73-6.58 4.36-9.4 1.72z"/>
    <path d="M181.19 14c21.79-2.05 43.04 6.74 56.12 24.33 36.75 49.43-14.03 114.53-71.21 92.73-58.55-22.32-47.52-111.19 15.08-117.07z"/>
  </g>
</svg>
