<?xml version="1.0" encoding="UTF-8"?>
<svg id="Layer_1" xmlns="http://www.w3.org/2000/svg" version="1.1" viewBox="0 0 647.77 647.77">
  <!-- Generator: Adobe Illustrator 29.8.2, SVG Export Plug-In . SVG Version: 2.1.1 Build 3)  -->
  <defs>
    <style>
      .st0 {
        fill: #fff;
      }
    </style>
  </defs>
  <path class="st0" d="M-786.18-1230.56V-206.56h-1024v-1024H-786.18ZM-1306.87-1036.45c-84.26,7.91-99.11,127.53-20.3,157.57,76.96,29.34,145.31-58.28,95.84-124.82-17.61-23.68-46.21-35.51-75.54-32.75ZM-1449.28-566.47c3.79,3.55,9.39,0,12.65-2.32,30.61-21.78,59.08-51.09,89.52-73.32,4.93-3.6,8.62-6.78,15.08-6.91,38.43-.73,107.66,7.97,141.23-7.61,44.22-20.52,52.29-64.5,49.01-108.92-3.03-40.98-39.18-78.46-80.42-81.42-48.76-3.5-101.68,2.69-150.88.05-40.44,4.31-73.72,35.68-78.42,76.43l-.07,196.84c-.01,1.87,1.05,6,2.31,7.18ZM-1560.7-531.01c-16.01,3.25-10.89,30.23,8.32,24.3,12.65-3.9,9.73-27.97-8.32-24.3ZM-1576.41-526.24h-62.94v98.9h21.98v-37.96h37.96v-17.98h-37.96c1.28-6.47-1.48-17.21-.6-22.91.15-.95-.01-1.44,1.1-2.07h40.46v-17.98ZM-1345.64-459.31h20.48c6.6,0,19.07-6.44,23.45-11.51,18.99-21.97,3.57-55.42-25.45-55.42h-39.46v98.9h20.98v-31.97ZM-1396.59-518.25c-6.76-2.01-13.13.21-19.98,0v19.98h-9.99v16.98h9.99v36.46c0,.4,2.07,6.56,2.49,7.5,5.98,13.31,23.78,13.06,35.89,10.1,1.24-.87-.11-15.84-.89-17.13-1.22-2.03-4.65.92-7.03,1.1-5.04.38-10.48-3.38-10.48-8.56v-29.47c1.08-.37,2.19,1,2.5,1h15.48l1-17.98h-18.98v-19.98ZM-1517.97-498.27c-5.32.73-11.99-.53-17.48,0v70.93h19.98v-37.46c0-1.23,2-6.75,2.79-8.2,3.86-7.07,12.99-8.58,20.18-6.28l2.08-19.39c-9.84-3.87-19.97.81-25.55,9.39l-.5-9.98c-.36-.5-1.2.96-1.49,1ZM-1194.78-498.27h-18.98v70.93h19.98v-41.46c0-.37,3.07-5.84,3.57-6.42,4.23-4.91,13.47-6.28,19.4-4.07l2.01-19.97c-9.61-2.11-20.8.1-24.99,9.98-2.34-.65-.24-8.24-.99-8.98ZM-1430.55-476.29c.52-20.37-18.7-24.57-35.51-23.02-16.48,1.51-28.37,20.21-18.3,34.37,7.27,10.21,35.03,9.82,37.17,14.88,3.98,9.43-14.31,11.23-20.57,5.76-2.08-1.81-2.67-6.28-4.39-6.88l-17.35.87c1.44,33.13,64.21,34.05,61.94-.48-1.32-20.06-22.94-16.94-35.66-22.3-10.99-4.63-3.7-12.27,6.21-11.21,7.65.82,8.13,8.19,10.1,8.89l16.36-.87ZM-1272.71-455.31h49.95c2.06-29.03-13.02-47.85-43.37-43.87-32.23,4.22-37.42,57.36-7.61,70.38,19.59,8.55,42.57,1.84,49.98-19.02l-19.95-2.49c-5.33,14.61-27.19,10.28-29-4.99ZM-1108.86-476.29c.45-21.34-19.08-24.72-36.46-22.97-22.36,2.26-30.09,30.82-8.49,40.44,6.42,2.86,22.73,4.61,26.25,7.45,2.19,1.76,2.25,6.47.02,8.11-6.56,4.85-21.89,1.52-22.9-8.12l-17.38,1.07c1.06,34.72,66.21,33.63,60.86-3.41-2.82-19.5-34.61-14.54-39.78-22.2-4.68-6.92,10.43-11.55,16.95-5.92,2.36,2.04,2.24,4.22,3.54,6.62l17.38-1.06ZM-1074.14-499.01c-33.03,4.74-38.52,57.65-7.11,70.52,31.8,13.03,60.32-13.73,51.24-46.25-5.74-20.54-24.34-27.12-44.13-24.28ZM-954.02-427.34c.27-.73-1-1.19-1-1.5v-49.95c0-1.64-3.35-9.65-4.56-11.42-9.3-13.71-31.83-11.67-41.39.93v-8.99h-18.99v70.93h19.98v-42.46c0-4.05,5.5-10.1,9.54-11.43,12.57-4.13,15.74,6.29,16.47,16.39.87,12.12-.72,25.27-.04,37.5h19.98ZM-1547.44-498.27h-20.98c-.27.73,1,1.19,1,1.5v69.43h19.98v-70.93Z"/>
  <g>
    <path d="M210.5,446.09c-.93-.87-1.72-3.94-1.71-5.33l.05-146.24c3.5-30.27,28.22-53.58,58.26-56.78,36.55,1.96,75.87-2.64,112.09-.04,30.64,2.2,57.5,30.05,59.75,60.49,2.44,33-3.56,65.67-36.41,80.92-24.94,11.58-76.37,5.11-104.93,5.66-4.8.09-7.54,2.46-11.2,5.13-22.61,16.52-43.77,38.29-66.51,54.48-2.42,1.73-6.58,4.36-9.4,1.72ZM234.81,395.81c1.37.18,2.32-.78,3.33-1.49,6.36-4.5,13.08-11.26,19.33-16.3,8.35-6.75,16.81-13.43,25.4-19.88,29.94-2.03,62.22,2.08,91.88-.15,18.47-1.39,35.24-15.55,36.74-34.52,2.2-27.87-3.32-51.68-33.8-58.28-33.04,1.04-66.33-1.21-99.32-.47-24.77.56-43.44,15.71-43.61,41.65-.18,28.02,1.86,56.5.84,84.65-.06,1.67-.76,3.13-.77,4.79Z"/>
    <path d="M316.3,96.93c21.79-2.05,43.04,6.74,56.12,24.33,36.75,49.43-14.03,114.53-71.21,92.73-58.55-22.32-47.52-111.19,15.08-117.07Z"/>
    <path d="M287.5,525.71v23.75h-15.59v-73.48h29.32c21.56,0,33.02,24.86,18.91,41.18-3.26,3.77-12.52,8.55-17.43,8.55h-15.22ZM287.5,513.09h11.5c.4,0,4.18-1.44,4.87-1.81,6.59-3.47,8.02-13.44,2.92-18.6-1.11-1.12-5.76-3.34-7.05-3.34h-12.25v23.75Z"/>
    <path d="M116.05,475.98v13.36h-30.06c-.82.47-.7.83-.81,1.54-.66,4.23,1.39,12.21.44,17.02h28.2v13.36h-28.2v28.2h-16.33v-73.48h46.76Z"/>
    <path d="M341.68,528.68c1.35,11.35,17.59,14.56,21.55,3.71l14.82,1.85c-5.51,15.5-22.58,20.49-37.13,14.13-22.15-9.67-18.29-49.15,5.65-52.29,22.55-2.95,33.75,11.03,32.22,32.59h-37.11ZM363.21,518.28c0-14.72-21.06-14.32-21.52,0h21.52Z"/>
    <path d="M489.21,496.21c14.71-2.11,28.53,2.78,32.79,18.04,6.75,24.15-14.44,44.04-38.07,34.36-23.34-9.56-19.26-48.88,5.28-52.4ZM492.89,508.81c-13.5,2.48-13.26,31.76,5.59,28.59,14.31-2.41,12.86-31.97-5.59-28.59Z"/>
    <path d="M578.45,549.46h-14.84c-.51-9.09.68-18.86.03-27.86-.54-7.5-2.9-15.24-12.24-12.17-3.01.99-7.09,5.48-7.09,8.49v31.54h-14.84v-52.7h14.1v6.68c7.11-9.36,23.84-10.88,30.75-.69.9,1.32,3.39,7.27,3.39,8.49v37.11c0,.23.94.57.74,1.11Z"/>
    <path d="M463.41,513.09l-12.91.78c-.97-1.78-.88-3.4-2.63-4.91-4.84-4.18-16.07-.74-12.59,4.4,3.84,5.69,27.46,2,29.55,16.49,3.97,27.52-44.43,28.33-45.21,2.54l12.91-.79c.75,7.16,12.14,9.64,17.01,6.03,1.66-1.22,1.61-4.72-.02-6.03-2.62-2.11-14.73-3.41-19.5-5.53-16.05-7.15-10.31-28.36,6.31-30.04,12.91-1.3,27.42,1.21,27.09,17.06Z"/>
    <path d="M224.42,513.09l-12.15.65c-1.46-.52-1.83-6-7.51-6.61-7.36-.79-12.77,4.89-4.61,8.33,9.45,3.99,25.51,1.67,26.49,16.57,1.69,25.66-44.95,24.97-46.02.36l12.89-.65c1.28.44,1.72,3.77,3.26,5.11,4.65,4.06,18.24,2.73,15.29-4.28-1.59-3.77-22.22-3.47-27.62-11.06-7.48-10.52,1.35-24.41,13.59-25.53,12.49-1.15,26.77,1.97,26.38,17.11Z"/>
    <path d="M249.65,481.92v14.84h14.1l-.74,13.36h-11.5c-.23,0-1.06-1.02-1.86-.74v21.9c0,3.85,4.05,6.64,7.79,6.36,1.77-.13,4.32-2.32,5.22-.82.58.96,1.58,12.08.66,12.73-9,2.2-22.22,2.39-26.66-7.5-.31-.69-1.85-5.28-1.85-5.57v-27.09h-7.42v-12.62h7.42v-14.84c5.09.15,9.82-1.5,14.84,0Z"/>
    <path d="M159.47,496.76c.21-.03.83-1.12,1.11-.74l.37,7.42c4.15-6.37,11.67-9.85,18.99-6.98l-1.55,14.41c-5.34-1.71-12.13-.59-14.99,4.67-.59,1.08-2.07,5.18-2.07,6.09v27.83h-14.84v-52.7c4.08-.4,9.03.54,12.99,0Z"/>
    <path d="M399.58,496.76c.55.55-1.01,6.19.73,6.67,3.12-7.34,11.43-8.98,18.57-7.41l-1.49,14.84c-4.41-1.64-11.27-.62-14.42,3.02-.37.43-2.65,4.5-2.65,4.77v30.8h-14.84v-52.7h14.1Z"/>
    <path d="M137.57,496.76v52.7h-14.84v-51.58c0-.23-.94-.57-.74-1.11h15.59Z"/>
    <path d="M127.72,472.44c13.41-2.73,15.58,15.15,6.18,18.05-14.27,4.4-18.08-15.64-6.18-18.05Z"/>
  </g>
</svg>